<svg id="SvgjsSvg1278" width="100%" height="100%" xmlns="http://www.w3.org/2000/svg" version="1.1" xlink="http://www.w3.org/1999/xlink" xmlns:svgjs="http://svgjs.com/svgjs" preserveAspectRatio="xMidYMid meet" viewBox="-1.3729130898809672e-7 0.00014088100579101592 299.99993896484375 43.4345588684082" overflow="visible"><defs id="SvgjsDefs1279"></defs><g id="SvgjsG1280" transform="scale(0.5346485720964425)" opacity="1"><g id="SvgjsG1281" class="94O9M5U8H" transform="translate(-6.4495713777360715, -5.653612566073886) scale(0.9253474509860529)" light-content="false" non-strokable="false" fill="#52abfa"><path d="M49.43 26.61a10.26 10.26 0 0 0 9.66-6.86A35.81 35.81 0 0 1 85.5 54.21a2 2 0 0 0 4 0 39.83 39.83 0 0 0-29.85-38.45 10.25 10.25 0 1 0-10.22 10.85zm0-16.5a6.25 6.25 0 1 1-6.25 6.25 6.26 6.26 0 0 1 6.25-6.26zM19.87 63.56a10.22 10.22 0 0 0-4.54-.17 35.63 35.63 0 0 1 17-40.28 2 2 0 0 0-2-3.48 39.75 39.75 0 0 0-18.75 45.29 10.24 10.24 0 0 0 3 18.45 10.32 10.32 0 0 0 2.67.35 10.25 10.25 0 0 0 2.62-20.16zm3.39 11.52a6.25 6.25 0 1 1-9.17-7 6.25 6.25 0 0 1 9.17 7zm69.43-4.93A10.25 10.25 0 1 0 75 79.48a35.7 35.7 0 0 1-44.29 4.89 2 2 0 0 0-2.14 3.38 39.68 39.68 0 0 0 49.61-5.8 10.16 10.16 0 0 0 4.58 1.12 10.26 10.26 0 0 0 9.92-12.92zm-4.49 5.78a6.25 6.25 0 1 1 .63-4.74 6.26 6.26 0 0 1-.63 4.74z"></path></g><g id="SvgjsG1282" class="text" transform="translate(340.10624777430763, 60.03000122070313) scale(1)" light-content="false" fill="#363636"><path d="M-211.14 -1.62C-208.04 0.06 -204.25 0.9 -199.77 0.9C-196.81 0.9 -194.37 0.64 -192.45 0.12C-190.53 -0.4 -188.55 -1.36 -186.51 -2.76L-189.75 -7.92C-191.27 -6.96 -192.78 -6.27 -194.28 -5.85C-195.78 -5.43 -197.45 -5.22 -199.29 -5.22C-203.21 -5.22 -206.17 -6.42 -208.17 -8.82C-210.17 -11.22 -211.17 -14.66 -211.17 -19.14C-211.17 -23.7 -210.27 -27.25 -208.47 -29.79C-206.67 -32.33 -204.05 -33.6 -200.61 -33.6C-198.85 -33.6 -197.39 -33.38 -196.23 -32.94L-196.23 -28.5L-186.81 -28.5L-186.81 -36.06C-188.69 -37.34 -190.72 -38.27 -192.9 -38.85C-195.08 -39.43 -197.71 -39.72 -200.79 -39.72C-205.19 -39.72 -208.86 -38.84 -211.8 -37.08C-214.74 -35.32 -216.92 -32.9 -218.34 -29.82C-219.76 -26.74 -220.47 -23.18 -220.47 -19.14C-220.47 -15.18 -219.69 -11.69 -218.13 -8.67C-216.57 -5.65 -214.24 -3.3 -211.14 -1.62Z M-174.27 -4.11C-171.19 -0.77 -166.49 0.9 -160.17 0.9C-153.85 0.9 -149.15 -0.77 -146.07 -4.11C-142.99 -7.45 -141.45 -12.5 -141.45 -19.26C-141.45 -26.1 -142.95 -31.22 -145.95 -34.62C-148.95 -38.02 -153.69 -39.72 -160.17 -39.72C-166.65 -39.72 -171.39 -38.02 -174.39 -34.62C-177.39 -31.22 -178.89 -26.1 -178.89 -19.26C-178.89 -12.5 -177.35 -7.45 -174.27 -4.11ZM-154.74 -6.6C-156.12 -5.68 -157.93 -5.22 -160.17 -5.22C-162.41 -5.22 -164.21 -5.68 -165.57 -6.6C-166.93 -7.52 -167.93 -9 -168.57 -11.04C-169.21 -13.08 -169.53 -15.82 -169.53 -19.26C-169.53 -22.78 -169.21 -25.58 -168.57 -27.66C-167.93 -29.74 -166.93 -31.25 -165.57 -32.19C-164.21 -33.13 -162.41 -33.6 -160.17 -33.6C-157.93 -33.6 -156.12 -33.13 -154.74 -32.19C-153.36 -31.25 -152.35 -29.74 -151.71 -27.66C-151.07 -25.58 -150.75 -22.78 -150.75 -19.26C-150.75 -15.82 -151.07 -13.08 -151.71 -11.04C-152.35 -9 -153.36 -7.52 -154.74 -6.6Z M-134.43 -6.06L-134.43 0L-104.13 0L-104.13 -10.74L-112.71 -10.74L-112.71 -8.4C-112.71 -6.84 -113.51 -6.06 -115.11 -6.06L-121.17 -6.06L-121.17 -30.54C-121.17 -32.02 -120.37 -32.76 -118.77 -32.76L-117.39 -32.76L-117.39 -38.82L-134.43 -38.82L-134.43 -32.76L-132.99 -32.76C-131.39 -32.76 -130.59 -32.02 -130.59 -30.54L-130.59 -8.4C-130.59 -7.6 -130.78 -7.01 -131.16 -6.63C-131.54 -6.25 -132.17 -6.06 -133.05 -6.06Z M-97.41 -6.06L-97.41 0L-67.11 0L-67.11 -10.74L-75.69 -10.74L-75.69 -8.4C-75.69 -6.84 -76.49 -6.06 -78.09 -6.06L-84.15 -6.06L-84.15 -30.54C-84.15 -32.02 -83.35 -32.76 -81.75 -32.76L-80.37 -32.76L-80.37 -38.82L-97.41 -38.82L-97.41 -32.76L-95.97 -32.76C-94.37 -32.76 -93.57 -32.02 -93.57 -30.54L-93.57 -8.4C-93.57 -7.6 -93.76 -7.01 -94.14 -6.63C-94.52 -6.25 -95.15 -6.06 -96.03 -6.06Z M-62.13 -6.06L-62.13 0L-45.87 0L-45.87 -6.06L-48.39 -6.06L-46.59 -11.58L-37.17 -11.58L-35.49 -6.06L-38.01 -6.06L-38.01 0L-21.81 0L-21.81 -6.06L-23.37 -6.06C-24.45 -6.06 -25.22 -6.19 -25.68 -6.45C-26.14 -6.71 -26.51 -7.28 -26.79 -8.16L-37.29 -38.82L-46.47 -38.82L-57.15 -8.16C-57.47 -7.28 -57.85 -6.71 -58.29 -6.45C-58.73 -6.19 -59.47 -6.06 -60.51 -6.06ZM-38.61 -16.44L-45.15 -16.44L-41.79 -26.76Z M-14.73 -6.06L-14.73 0L8.07 0C11.39 0 14.06 -1 16.08 -3C18.1 -5 19.11 -7.64 19.11 -10.92C19.11 -13.16 18.6 -14.99 17.58 -16.41C16.56 -17.83 15.07 -18.94 13.11 -19.74C14.79 -20.62 16.11 -21.81 17.07 -23.31C18.03 -24.81 18.51 -26.46 18.51 -28.26C18.51 -31.7 17.54 -34.32 15.6 -36.12C13.66 -37.92 10.97 -38.82 7.53 -38.82L-14.73 -38.82L-14.73 -32.76L-13.23 -32.76C-11.67 -32.76 -10.89 -32.02 -10.89 -30.54L-10.89 -8.4C-10.89 -7.6 -11.07 -7.01 -11.43 -6.63C-11.79 -6.25 -12.39 -6.06 -13.23 -6.06ZM4.17 -22.56L-1.47 -22.56L-1.47 -32.76L4.29 -32.76C5.85 -32.76 7.05 -32.32 7.89 -31.44C8.73 -30.56 9.15 -29.32 9.15 -27.72C9.15 -26 8.68 -24.71 7.74 -23.85C6.8 -22.99 5.61 -22.56 4.17 -22.56ZM4.89 -6.06L-1.47 -6.06L-1.47 -16.32L4.41 -16.32C8.01 -16.32 9.81 -14.64 9.81 -11.28C9.81 -9.52 9.36 -8.21 8.46 -7.35C7.56 -6.49 6.37 -6.06 4.89 -6.06Z M27.63 -6.06L27.63 0L43.77 0L43.77 -6.06L42.69 -6.06C41.97 -6.06 41.47 -6.21 41.19 -6.51C40.91 -6.81 40.77 -7.32 40.77 -8.04L40.77 -14.04L46.11 -14.04L50.55 -6.06L48.39 -6.06L48.39 0L63.21 0L63.21 -6.06L62.01 -6.06C61.13 -6.06 60.44 -6.19 59.94 -6.45C59.44 -6.71 59.01 -7.16 58.65 -7.8L54.45 -15.18C57.13 -16.18 59.15 -17.65 60.51 -19.59C61.87 -21.53 62.55 -23.88 62.55 -26.64C62.55 -30.64 61.31 -33.67 58.83 -35.73C56.35 -37.79 52.91 -38.82 48.51 -38.82L27.63 -38.82L27.63 -32.76L29.01 -32.76C30.65 -32.76 31.47 -32.02 31.47 -30.54L31.47 -8.28C31.47 -6.8 30.65 -6.06 29.01 -6.06ZM47.13 -20.1L40.77 -20.1L40.77 -32.76L47.13 -32.76C49.29 -32.76 50.85 -32.29 51.81 -31.35C52.77 -30.41 53.25 -28.84 53.25 -26.64C53.25 -24.44 52.76 -22.8 51.78 -21.72C50.8 -20.64 49.25 -20.1 47.13 -20.1Z M71.73 -6.06L71.73 0L88.71 0L88.71 -6.06L87.27 -6.06C85.71 -6.06 84.93 -6.8 84.93 -8.28L84.93 -30.54C84.93 -32.02 85.71 -32.76 87.27 -32.76L88.71 -32.76L88.71 -38.82L71.73 -38.82L71.73 -32.76L73.11 -32.76C73.95 -32.76 74.56 -32.58 74.94 -32.22C75.32 -31.86 75.51 -31.3 75.51 -30.54L75.51 -8.4C75.51 -7.6 75.33 -7.01 74.97 -6.63C74.61 -6.25 73.99 -6.06 73.11 -6.06Z M104.34 -1.65C107.36 0.05 111.01 0.9 115.29 0.9C118.37 0.9 121.16 0.56 123.66 -0.12C126.16 -0.8 128.45 -1.88 130.53 -3.36L130.53 -21.36L113.67 -21.36L113.67 -15.3L121.11 -15.3L121.11 -5.94C119.51 -5.46 117.73 -5.22 115.77 -5.22C112.13 -5.22 109.34 -6.43 107.4 -8.85C105.46 -11.27 104.49 -14.7 104.49 -19.14C104.49 -23.7 105.42 -27.25 107.28 -29.79C109.14 -32.33 111.79 -33.6 115.23 -33.6C116.19 -33.6 116.99 -33.54 117.63 -33.42C118.27 -33.3 118.93 -33.08 119.61 -32.76L119.61 -28.5L129.03 -28.5L129.03 -36.06C127.11 -37.34 125.07 -38.27 122.91 -38.85C120.75 -39.43 118.11 -39.72 114.99 -39.72C110.59 -39.72 106.9 -38.84 103.92 -37.08C100.94 -35.32 98.73 -32.89 97.29 -29.79C95.85 -26.69 95.13 -23.14 95.13 -19.14C95.13 -15.22 95.91 -11.75 97.47 -8.73C99.03 -5.71 101.32 -3.35 104.34 -1.65Z M139.05 -6.06L139.05 0L155.55 0L155.55 -6.06L154.65 -6.06C153.85 -6.06 153.26 -6.25 152.88 -6.63C152.5 -7.01 152.31 -7.6 152.31 -8.4L152.31 -16.44L164.55 -16.44L164.55 -8.4C164.55 -7.6 164.36 -7.01 163.98 -6.63C163.6 -6.25 163.01 -6.06 162.21 -6.06L161.25 -6.06L161.25 0L177.81 0L177.81 -6.06L176.37 -6.06C175.53 -6.06 174.92 -6.25 174.54 -6.63C174.16 -7.01 173.97 -7.6 173.97 -8.4L173.97 -30.54C173.97 -32.02 174.77 -32.76 176.37 -32.76L177.81 -32.76L177.81 -38.82L161.25 -38.82L161.25 -32.76L162.21 -32.76C163.01 -32.76 163.6 -32.57 163.98 -32.19C164.36 -31.81 164.55 -31.22 164.55 -30.42L164.55 -22.5L152.31 -22.5L152.31 -30.54C152.31 -32.02 153.07 -32.76 154.59 -32.76L155.55 -32.76L155.55 -38.82L139.05 -38.82L139.05 -32.76L140.49 -32.76C142.05 -32.76 142.83 -32.02 142.83 -30.54L142.83 -8.4C142.83 -7.6 142.65 -7.01 142.29 -6.63C141.93 -6.25 141.33 -6.06 140.49 -6.06Z M194.91 -6.06L194.91 0L211.95 0L211.95 -6.06L210.57 -6.06C208.93 -6.06 208.11 -6.8 208.11 -8.28L208.11 -32.7L212.07 -32.7C212.91 -32.7 213.52 -32.52 213.9 -32.16C214.28 -31.8 214.47 -31.22 214.47 -30.42L214.47 -27.96L221.01 -27.96L221.01 -38.76L185.73 -38.76L185.73 -27.96L192.33 -27.96L192.33 -30.42C192.33 -31.22 192.52 -31.8 192.9 -32.16C193.28 -32.52 193.89 -32.7 194.73 -32.7L198.69 -32.7L198.69 -8.28C198.69 -6.8 197.89 -6.06 196.29 -6.06Z"></path></g></g></svg>